# xmcd
#
# Track frame offsets: 
#        150
#        19639
#        37361
#        66659
#        94861
#        111139
#        126552
#        143533
#        161352
#
# Disc length: 2564 seconds
#
# Revision: 1
# Processed by: cddbd v1.5.2PL0 Copyright (c) Steve Scherf et al.
# Submitted via: ExactAudioCopy v0.95b4
#
DISCID=800a0209
DTITLE=Grencsó Kollektíva - plays Monk
DYEAR=1900
DGENRE=Jazz
TTITLE0=In Walked Bud
TTITLE1=Bemsha Swing
TTITLE2=Misterioso
TTITLE3=Epistrophy
TTITLE4=Rhythm-A-Ning
TTITLE5=Blue Monk
TTITLE6=Well You Needn't
TTITLE7=Straight No Chaser
TTITLE8='Round Midnight
EXTD=
EXTT0=
EXTT1=
EXTT2=
EXTT3=
EXTT4=
EXTT5=
EXTT6=
EXTT7=
EXTT8=
PLAYORDER=
